<svg width="40" height="40" viewBox="0 0 40 40" fill="none" xmlns="http://www.w3.org/2000/svg">
<path d="M16.4844 21.1719H23.5156V23.5156H16.4844V21.1719Z" fill="#36CD77"/>
<path d="M32.4515 23.5158H25.8594V24.6877C25.8594 25.3353 25.3351 25.8596 24.6875 25.8596H15.3125C14.6649 25.8596 14.1406 25.3353 14.1406 24.6877V23.5158H7.54852C6.03333 23.5158 4.6933 22.5499 4.21356 21.1125L0 8.46973V34.0627C0 36.0012 1.57715 37.5783 3.51562 37.5783H36.4844C38.4229 37.5783 40 36.0012 40 34.0627V8.47064L35.7861 21.1125C35.3067 22.5499 33.9667 23.5158 32.4515 23.5158Z" fill="#36CD77"/>
<path d="M24.6878 2.42188H15.3128C13.3743 2.42188 11.7972 3.99902 11.7972 5.9375V7.10938H2.0166L6.43646 20.3708C6.59668 20.8502 7.04407 21.1719 7.54883 21.1719H14.1409V20C14.1409 19.3524 14.6652 18.8281 15.3128 18.8281H24.6878C25.3354 18.8281 25.8597 19.3524 25.8597 20V21.1719H32.4518C32.9565 21.1719 33.4039 20.8502 33.5641 20.3708L37.9843 7.10938H28.2034V5.9375C28.2034 3.99902 26.6263 2.42188 24.6878 2.42188ZM14.1409 7.10938V5.9375C14.1409 5.29083 14.6661 4.76562 15.3128 4.76562H24.6878C25.3345 4.76562 25.8597 5.29083 25.8597 5.9375V7.10938H14.1409Z" fill="#36CD77"/>
</svg>
